
<svg version="1.0" xmlns="http://www.w3.org/2000/svg"
 width="222.000000pt" height="230.000000pt" viewBox="0 0 222.000000 230.000000"
 preserveAspectRatio="xMidYMid meet">

<g transform="translate(0.000000,230.000000) scale(0.100000,-0.100000)"
fill="#000000" stroke="none">
<path d="M2096 1254 c-5 -12 -9 -14 -20 -5 -11 9 -16 3 -25 -33 -6 -25 -11
-63 -11 -85 0 -124 -73 -320 -169 -458 -99 -141 -299 -289 -446 -330 -146 -41
-175 -46 -295 -46 -106 -1 -142 4 -235 28 -60 15 -131 38 -157 51 -26 13 -53
24 -60 24 -15 0 -68 -63 -68 -80 0 -18 163 -89 268 -117 82 -21 120 -25 247
-25 132 -1 162 2 250 26 298 79 538 272 673 541 22 44 47 109 56 145 10 36 22
80 27 98 14 45 22 259 10 266 -5 4 -12 2 -16 -4 -10 -16 -25 -12 -19 5 4 8 4
15 1 15 -3 0 -8 -7 -11 -16z"/>
<path d="M176 1252 c-3 -5 -19 -7 -36 -4 l-30 4 0 -104 c0 -117 12 -195 42
-283 23 -67 99 -214 135 -261 16 -21 23 -44 23 -75 0 -137 180 -192 250 -76
58 94 -9 207 -123 207 l-48 0 -49 78 c-56 86 -108 234 -121 342 -17 152 -22
180 -30 180 -4 0 -10 -4 -13 -8z m321 -674 c30 -28 30 -74 1 -105 -28 -30 -68
-29 -102 2 -35 32 -35 76 0 104 34 27 72 27 101 -1z"/>
<path d="M453 1138 c10 -145 53 -257 139 -364 133 -165 292 -244 510 -252 104
-4 127 -1 208 22 108 31 156 54 231 112 145 111 234 271 258 460 12 99 5 114
-53 114 l-43 0 -6 -72 c-6 -88 -25 -145 -75 -232 -143 -252 -455 -358 -720
-245 -182 78 -315 252 -343 449 -15 101 -14 100 -66 100 l-46 0 6 -92z"/>
</g>
</svg>
